<svg xmlns="http://www.w3.org/2000/svg" id="Ico_Finalizada" width="17" height="17" viewBox="0 0 17 17">
    <defs>
        <clipPath id="clip-path">
            <path id="Retângulo_799" d="M0 0H17V17H0z" class="cls-1" transform="translate(.203 .203)"/>
        </clipPath>
        <style>
            .cls-1{fill:#bcbccb}
        </style>
    </defs>
    <g id="Grupo_1839" transform="translate(-.203 -.203)">
        <g id="Grupo_1838" clip-path="url(#clip-path)">
            <path id="Caminho_2150" d="M109.378 309.246l.318-.089a.575.575 0 0 0 .4-.709l-3.637-13.017a.719.719 0 0 0-.886-.5l-.041.011a.719.719 0 0 0-.5.886l3.637 13.017a.575.575 0 0 0 .709.4zm0 0" class="cls-1" transform="translate(-105.004 -291.98)"/>
            <path id="Caminho_2151" d="M163.091 237.74a13.779 13.779 0 0 1-3.17-2.181.283.283 0 0 1-.081-.289 40.748 40.748 0 0 0 1.046-5.417c.036-.3-.128-.393-.3-.185-3.391 4.055-9.257-.742-12.749 2.944a1.189 1.189 0 0 1 .1.247l2.36 8.45c3.5-3.641 9.344 1.126 12.728-2.92.173-.208.205-.59.069-.65zm0 0" class="cls-1" transform="translate(-145.908 -229.57)"/>
        </g>
    </g>
</svg>
