<svg xmlns="http://www.w3.org/2000/svg" id="Ico_Aberto" width="18" height="18" viewBox="0 0 18 18">
    <defs>
        <clipPath id="clip-path">
            <path id="Retângulo_795" d="M0 0H18V18H0z" class="cls-1"/>
        </clipPath>
        <style>
            .cls-1{fill:#bcbccb}
        </style>
    </defs>
    <g id="Grupo_1834">
        <g id="Grupo_1833" clip-path="url(#clip-path)">
            <path id="Caminho_2145" d="M294.66 410.331a1.295 1.295 0 0 0-.718-2.208l-4.37-.635a.575.575 0 0 1-.431-.313l-1.954-3.96a1.3 1.3 0 0 0-2.323 0l-1.954 3.96a.571.571 0 0 1-.431.313l-4.37.635a1.294 1.294 0 0 0-.718 2.208l3.163 3.081a.574.574 0 0 1 .164.506l-.746 4.352a1.274 1.274 0 0 0 .282 1.05 1.307 1.307 0 0 0 1.6.314l3.908-2.054a.583.583 0 0 1 .533 0l3.909 2.054a1.273 1.273 0 0 0 .6.152 1.3 1.3 0 0 0 .994-.466 1.272 1.272 0 0 0 .282-1.05l-.746-4.352a.574.574 0 0 1 .164-.506zm0 0" class="cls-1" transform="translate(-277 -402.22)"/>
        </g>
    </g>
</svg>
