<svg xmlns="http://www.w3.org/2000/svg" id="Ico_Vencendo" width="17.161" height="17.189" viewBox="0 0 17.161 17.189">
    <defs>
        <style>
            .cls-1{fill:#bcbccb}
        </style>
    </defs>
    <path id="Caminho_2142" d="M79.894 96.4a6.753 6.753 0 1 0-9.751 0l-1.755 2.339a.614.614 0 0 0 .982.737l1.7-2.268a6.7 6.7 0 0 0 7.895 0l1.7 2.268a.614.614 0 0 0 .982-.737zm-4.262-4.66a.614.614 0 0 1-.123.368l-1.842 2.456a.614.614 0 1 1-.982-.737l1.715-2.288V88.06a.614.614 0 0 1 1.228 0z" class="cls-1" transform="translate(-66.451 -82.536)"/>
    <path id="Caminho_2143" d="M23.035 18.7a3.07 3.07 0 0 0-4.341 4.34.614.614 0 0 0 .868 0l3.473-3.472a.614.614 0 0 0 0-.868z" class="cls-1" transform="translate(-17.823 -17.804)"/>
    <path id="Caminho_2144" d="M348.793 17.984a3.07 3.07 0 0 0-4.34 0 .614.614 0 0 0 0 .868l3.472 3.472a.614.614 0 0 0 .868 0 3.07 3.07 0 0 0 0-4.34z" class="cls-1" transform="translate(-332.53 -17.085)"/>
</svg>
