<svg xmlns="http://www.w3.org/2000/svg" id="Ico_Exportar" width="16.964" height="14.844" viewBox="0 0 16.964 14.844">
    <defs>
        <style>
            .cls-1{fill:#bcbccb}
        </style>
    </defs>
    <path id="Caminho_2139" d="M11.663 75.663H2.121v-9.542H5.3V64H1.06A1.061 1.061 0 0 0 0 65.06v11.663a1.06 1.06 0 0 0 1.06 1.06h11.663a1.059 1.059 0 0 0 1.06-1.06v-5.268h-2.12z" class="cls-1" transform="translate(0 -62.94)"/>
    <path id="Caminho_2140" d="M140.511 35.283L136.27 32.1a.531.531 0 0 0-.848.424v1.59h-1.59A5.838 5.838 0 0 0 128 39.948a.53.53 0 0 0 1 .237l.125-.249A4.745 4.745 0 0 1 133.4 37.3h2.025v1.59a.53.53 0 0 0 .848.424l4.241-3.181a.53.53 0 0 0 0-.848z" class="cls-1" transform="translate(-123.759 -31.996)"/>
</svg>
