<svg xmlns="http://www.w3.org/2000/svg" id="Ico_Filtros" width="15.328" height="15.328" viewBox="0 0 15.328 15.328">
    <defs>
        <style>
            .cls-1{fill:#bcbccb}
        </style>
    </defs>
    <path id="Caminho_2135" d="M117.575 229.89h-9.822a2.756 2.756 0 0 0-2.753 2.753v9.822a2.756 2.756 0 0 0 2.753 2.753h9.822a2.756 2.756 0 0 0 2.753-2.753v-9.822a2.756 2.756 0 0 0-2.753-2.753zm.379 11.962h-4.912a1.414 1.414 0 0 1-2.678 0h-2.989a.451.451 0 0 1 0-.9h2.989a1.414 1.414 0 0 1 2.678 0h4.912a.451.451 0 0 1 0 .9zm0-3.847h-1.065a1.414 1.414 0 0 1-2.678 0h-6.836a.451.451 0 0 1 0-.9h6.836a1.414 1.414 0 0 1 2.678 0h1.065a.451.451 0 0 1 0 .9zm0-3.847h-6.836a1.414 1.414 0 0 1-2.678 0h-1.065a.451.451 0 0 1 0-.9h1.065a1.414 1.414 0 0 1 2.678 0h6.836a.451.451 0 0 1 0 .9zm0 0" class="cls-1" transform="translate(-105 -229.89)"/>
    <path id="Caminho_2136" d="M260.714 505.468a.511.511 0 0 0 0 1.022.511.511 0 0 0 0-1.022zm0 0" class="cls-1" transform="translate(-254.012 -494.468)"/>
    <path id="Caminho_2137" d="M212.527 312.714a.511.511 0 0 0 0 1.022.511.511 0 0 0 0-1.022zm0 0" class="cls-1" transform="translate(-207.748 -309.408)"/>
    <path id="Caminho_2138" d="M357.091 409.089a.511.511 0 0 0 0 1.022.511.511 0 0 0 0-1.022zm0 0" class="cls-1" transform="translate(-346.541 -401.936)"/>
</svg>
