<svg xmlns="http://www.w3.org/2000/svg" id="Ico_Andamento" width="17.722" height="11.422" viewBox="0 0 17.722 11.422">
    <defs>
        <style>
            .cls-1{fill:#bcbccb}
        </style>
    </defs>
    <path id="Caminho_2146" d="M58.2 526.89H41.519a.519.519 0 0 0-.519.519v1.038a.519.519 0 0 0 .519.519H58.2a.519.519 0 0 0 .519-.519v-1.038a.519.519 0 0 0-.519-.519zm0 0" class="cls-1" transform="translate(-41 -517.545)"/>
    <path id="Caminho_2147" d="M77.4 257.928a.52.52 0 0 0-.519.519v3.115a.519.519 0 1 1-1.038 0V259.5a7.779 7.779 0 0 0-3.089 5.7h15.527a7.779 7.779 0 0 0-3.089-5.7v2.067a.519.519 0 1 1-1.038 0v-3.115a.52.52 0 0 0-.519-.519h-.519v2.6a.519.519 0 1 1-1.038 0v-3.115a.52.52 0 0 0-.519-.519h-2.078a.52.52 0 0 0-.519.519v3.115a.519.519 0 1 1-1.038 0v-2.6zm0 0" class="cls-1" transform="translate(-71.659 -256.89)"/>
</svg>
