<svg xmlns="http://www.w3.org/2000/svg" id="Logo_TE_branco_Abr" width="48.306" height="20.6" viewBox="0 0 48.306 20.6">
    <defs>
        <style>
            .cls-1{fill:#fff}
        </style>
    </defs>
    <path id="Caminho_2105" d="M734.846 440.68c-1.116 1.44-2.22 2.872-3.333 4.3-.262.335-.653.2-.989.2-3.582.008-7.165.029-10.746-.014-.77-.009-.956.214-.936.954.048 1.81.011 1.811 1.784 1.811h15.537c.09.377-.2.545-.358.754-.979 1.261-2.016 2.481-2.943 3.779a1.856 1.856 0 0 1-1.752.823q-8.779-.05-17.559 0c-.7 0-.921-.148-.9-.882.055-2.139 0-4.28.032-6.42.009-.611-.138-.867-.792-.811s-1.344-.019-2.013.022c-.52.032-.655-.169-.641-.658.031-1.053.065-2.112-.009-3.161-.054-.76.233-.883.917-.879 5.149.027 10.3.015 15.448.015 2.751 0 5.5 0 8.252.006a1.385 1.385 0 0 1 1.001.161z" class="cls-1" transform="translate(-687.979 -432.69)"/>
    <path id="Caminho_2106" d="M624.909 400.163c-1.412 1.8-2.716 3.438-3.994 5.1-.249.324-.551.266-.859.267-1.535.006-3.072.047-4.6-.016-.78-.032-1.021.158-1.013.979.044 4.408 0 8.816.041 13.224.008.821-.238 1.017-1.018.982-1.4-.064-2.816-.065-4.22 0-.835.039-1.127-.149-1.116-1.066.055-4.407.007-8.816.043-13.224.006-.726-.19-.906-.9-.894-2.654.044-5.309.018-7.964.017-.18 0-.361-.016-.685-.032 1.349-1.775 2.619-3.441 3.882-5.112.186-.246.435-.224.689-.224z" class="cls-1" transform="translate(-598.617 -400.102)"/>
    <path id="Caminho_2107" d="M734.421 405.3l3.921-4.964c.165-.209.393-.174.614-.174q8.729 0 17.457.008c.051 0 .1.047.235.114-1.3 1.66-2.6 3.3-3.882 4.954a.746.746 0 0 1-.672.265q-8.776-.014-17.552-.023c-.016-.004-.033-.051-.121-.18z" class="cls-1" transform="translate(-708.342 -400.098)"/>
    <path id="Caminho_2118" d="M719.434 405.261c1.45-1.844 2.728-3.537 4.09-5.158.391-.466 1.059-.13 1.8-.2-1.405 1.795-2.673 3.455-3.991 5.074-.448.553-1.101.197-1.899.284z" class="cls-1" transform="translate(-696.233 -399.851)"/>
</svg>
