<svg xmlns="http://www.w3.org/2000/svg" id="Logo_TE_small" width="122.963" height="13.205" viewBox="0 0 122.963 13.205">
    <defs>
        <style>
            .cls-1{fill:#fff}
        </style>
    </defs>
    <path id="Caminho_2105" d="M725.646 440.614c-.715.923-1.423 1.841-2.137 2.755-.168.214-.418.128-.634.128-2.3.005-4.593.019-6.888-.009-.494-.006-.613.137-.6.611.031 1.16.007 1.161 1.144 1.161h9.959c.058.242-.125.349-.23.484-.628.808-1.292 1.59-1.886 2.422a1.19 1.19 0 0 1-1.123.528q-5.627-.032-11.255 0c-.451 0-.59-.095-.578-.566.035-1.371 0-2.744.021-4.115.006-.392-.088-.556-.508-.52s-.862-.012-1.29.014c-.333.02-.42-.109-.411-.422.02-.675.042-1.354-.006-2.026-.035-.487.149-.566.588-.564 3.3.017 6.6.009 9.9.009h5.289a.888.888 0 0 1 .645.11z" class="cls-1" transform="translate(-695.605 -435.492)"/>
    <path id="Caminho_2106" d="M615.47 400.163c-.9 1.152-1.741 2.2-2.56 3.268-.16.208-.353.17-.55.171-.984 0-1.969.03-2.952-.01-.5-.021-.655.1-.649.628.028 2.825 0 5.651.027 8.477.005.526-.153.652-.652.629-.9-.041-1.8-.042-2.705 0-.535.025-.723-.1-.715-.683.035-2.825 0-5.651.027-8.476 0-.465-.122-.581-.579-.573-1.7.028-3.4.012-5.1.011-.116 0-.231-.01-.439-.021.865-1.138 1.679-2.205 2.488-3.277.119-.158.279-.143.442-.143z" class="cls-1" transform="translate(-598.617 -400.124)"/>
    <path id="Caminho_2107" d="M734.421 403.451c.827-1.046 1.671-2.113 2.514-3.182.106-.134.252-.112.393-.112h11.19c.032 0 .065.03.151.073-.835 1.064-1.664 2.118-2.488 3.176a.478.478 0 0 1-.43.17q-5.625-.009-11.251-.015c-.012.005-.023-.025-.079-.11z" class="cls-1" transform="translate(-717.705 -400.119)"/>
    <path id="Caminho_2108" d="M1141.53 430.047c0-1.487.025-2.812-.013-4.136-.014-.5.219-.5.588-.506.388-.007.585.04.577.518-.03 1.841-.007 3.683-.019 5.525 0 .219.15.58-.137.638a.943.943 0 0 1-1.1-.283c-.972-1.316-1.989-2.6-2.991-3.894-.107-.139-.229-.267-.439-.511 0 1.458-.01 2.777.006 4.1.005.413-.01.664-.563.647-.492-.014-.6-.152-.593-.619.026-1.78 0-3.561.02-5.341 0-.248-.21-.657.173-.736a1.031 1.031 0 0 1 1.2.339c.9 1.242 1.861 2.44 2.8 3.654.125.158.261.315.491.605z" class="cls-1" transform="translate(-1070.565 -422.247)"/>
    <path id="Caminho_2109" d="M1085.122 428.832c0-.9.028-1.8-.011-2.7-.022-.491.088-.674.622-.656 1.248.042 2.5.029 3.747 0 .428-.008.609.062.6.556 0 .472-.182.521-.573.51-.9-.025-1.8.008-2.7-.016-.377-.01-.534.063-.532.492.006 1.255-.016 1.255 1.242 1.255.594 0 1.188.016 1.782-.005.454-.016.35.295.352.541s.095.549-.356.537c-.839-.021-1.68.01-2.519-.013-.362-.01-.5.074-.5.469-.012 1.3-.03 1.3 1.26 1.3.717 0 1.435.028 2.15-.009.5-.026.433.278.445.587s0 .529-.439.52c-1.392-.029-2.785-.022-4.178 0-.339 0-.405-.117-.4-.423.019-.977.008-1.963.008-2.945z" class="cls-1" transform="translate(-1025.225 -422.321)"/>
    <path id="Caminho_2110" d="M1325.027 426.861v4.788c0 .257.127.581-.376.569s-.35-.356-.352-.6q-.015-2.733 0-5.466c0-.215-.165-.536.179-.632a.692.692 0 0 1 .791.306c1.181 1.545 2.388 3.069 3.588 4.6.074.094.156.182.35.405v-1c0-1.29.005-2.58 0-3.87 0-.281.024-.459.383-.465.393-.006.358.226.358.479 0 1.884 0 3.767-.009 5.651 0 .192.153.479-.159.571a.592.592 0 0 1-.672-.287c-1.188-1.539-2.393-3.066-3.6-4.594-.121-.158-.202-.356-.481-.455z" class="cls-1" transform="translate(-1234.939 -422.334)"/>
    <path id="Caminho_2111" d="M1496.258 428.167c1.348 0 1.348 0 1.348 1.372a1.078 1.078 0 0 0 0 .245c.242 1-.359 1.434-1.153 1.775a3.59 3.59 0 0 1-4.447-1.265 3.643 3.643 0 0 1 .97-4.765 3.761 3.761 0 0 1 4.051.026c.2.146.349.248.125.517-.2.235-.308.272-.585.086a2.649 2.649 0 0 0-4.2 1.554 2.714 2.714 0 0 0 3.974 3.119.75.75 0 0 0 .541-.892 1.667 1.667 0 0 1 0-.49c.068-.469-.094-.674-.591-.608a4.491 4.491 0 0 1-.859 0c-.252-.015-.606.142-.6-.359 0-.48.346-.292.567-.312.284-.023.572-.003.859-.003z" class="cls-1" transform="translate(-1381.6 -421.859)"/>
    <path id="Caminho_2112" d="M1272.443 428.847c0-.942.014-1.885-.007-2.827-.008-.362.083-.507.475-.5 1.312.021 2.625.011 3.938.005.275 0 .47.016.464.384s-.226.32-.45.321c-1.026 0-2.052.027-3.076-.012-.481-.018-.617.147-.566.593.063.561-.246 1.314.128 1.636.323.278 1.053.088 1.6.1.512.007 1.026.009 1.538 0 .239-.005.376.027.374.325s-.157.318-.386.317c-.923-.006-1.846.013-2.769-.01-.371-.009-.517.1-.492.48a9.67 9.67 0 0 1 0 1.351c-.032.423.1.571.54.557 1.045-.032 2.092 0 3.138-.014.279 0 .458.016.454.382 0 .384-.244.3-.452.3-1.312 0-2.626-.013-3.938.011-.4.007-.534-.091-.521-.505.03-.962.009-1.925.009-2.888z" class="cls-1" transform="translate(-1189.493 -422.36)"/>
    <path id="Caminho_2113" d="M1385.886 428.851c0-.941.024-1.883-.01-2.823-.016-.446.141-.543.557-.535 1.228.025 2.458 0 3.687.013.251 0 .6-.139.585.367-.011.533-.39.316-.614.32q-1.5.033-3.011 0c-.334-.006-.484.071-.462.437a11.148 11.148 0 0 1 0 1.411c-.024.369.077.5.469.483.9-.031 1.8-.014 2.7-.007.2 0 .458-.1.472.284s-.233.349-.478.349c-.9 0-1.8.013-2.7-.007-.334-.007-.483.071-.462.437a15.086 15.086 0 0 1 0 1.534c-.015.327.1.418.421.413 1.065-.016 2.13-.008 3.2 0 .234 0 .492-.072.5.334s-.229.346-.472.346c-1.311 0-2.622-.016-3.932.009-.385.007-.484-.106-.474-.48.026-.961.009-1.923.009-2.884z" class="cls-1" transform="translate(-1288.955 -422.334)"/>
    <path id="Caminho_2114" d="M892.859 429.4c0 .818-.021 1.636.007 2.453.02.563-.375.346-.628.368s-.565.106-.556-.383c.029-1.553 0-3.107.025-4.661.008-.438-.134-.584-.558-.543-.3.029-.618-.028-.92.013-.544.073-.728-.122-.68-.671.029-.336.1-.463.458-.459 1.515.016 3.03.024 4.544 0 .5-.009.427.29.438.6s0 .568-.436.535c-.407-.031-.82.016-1.227-.013-.391-.028-.485.136-.474.5.023.746.007 1.503.007 2.261z" class="cls-1" transform="translate(-853.732 -422.355)"/>
    <path id="Caminho_2115" d="M1197.594 429.4c0 .8-.037 1.6.013 2.394.032.522-.274.438-.575.433s-.639.107-.625-.45c.038-1.514-.009-3.029.025-4.543.011-.5-.155-.654-.627-.6-.283.032-.577-.026-.859.013-.546.076-.725-.124-.677-.671.029-.337.105-.461.457-.458 1.516.015 3.033.021 4.549 0 .436-.007.456.211.436.53-.018.292.1.643-.424.6-.407-.033-.821.018-1.229-.013s-.483.134-.472.5c.024.749.008 1.507.008 2.265z" class="cls-1" transform="translate(-1120.942 -422.355)"/>
    <path id="Caminho_2116" d="M1553.32 425.646c-.778 1.139-1.509 2.249-2.285 3.326a2.1 2.1 0 0 0-.455 1.47c.039.468 0 .941.012 1.411.009.284-.024.45-.385.447-.38 0-.4-.214-.362-.472a5.05 5.05 0 0 0-1.361-4.2 24.092 24.092 0 0 1-1.375-2 .948.948 0 0 1 1.241.468c.575.937 1.217 1.834 1.876 2.813.693-1.016 1.365-1.958 1.985-2.933a.818.818 0 0 1 1.109-.33z" class="cls-1" transform="translate(-1430.357 -422.395)"/>
    <path id="Caminho_2117" d="M1001.5 428.9c0 .94-.037 1.881.014 2.818.03.546-.253.521-.627.52-.35 0-.6.031-.6-.485q.051-2.879 0-5.76c-.009-.543.3-.455.622-.47.361-.016.619-.007.6.5-.042.958-.009 1.92-.009 2.877z" class="cls-1" transform="translate(-950.845 -422.362)"/>
    <path id="Caminho_2118" d="M719.434 403.319c.93-1.182 1.748-2.267 2.621-3.306.251-.3.679-.083 1.153-.126-.9 1.151-1.713 2.215-2.558 3.252-.286.352-.704.124-1.216.18z" class="cls-1" transform="translate(-704.562 -399.851)"/>
    <path id="Caminho_2119" d="M1027.407 425.6c-.873-.086-1.759-.024-2.639-.054-.36-.012-.39.17-.387.454.011.961 0 1.923 0 2.884v2.946c0 .238-.019.44.334.43.88-.027 1.766.032 2.64-.045a3.243 3.243 0 0 0 3.068-3.294 3.2 3.2 0 0 0-3.016-3.321zm-.476 5.567c-1.344.025-1.344.025-1.344-1.312v-1.043c0-.613.009-1.227 0-1.84-.005-.261.082-.369.352-.355.347.017.7-.006 1.044.007a2.187 2.187 0 0 1 2.219 2.337 2.146 2.146 0 0 1-2.271 2.205z" class="cls-1" transform="translate(-971.973 -422.382)"/>
    <path id="Caminho_2120" d="M947.727 429.781a3.351 3.351 0 0 0 1.012-.618 2.1 2.1 0 0 0 .435-2.17 1.976 1.976 0 0 0-1.8-1.359c-1.056-.1-2.126-.042-3.19-.066-.337-.008-.346.189-.345.435 0 1.963.016 3.926-.006 5.888-.006.559.369.359.626.376s.591.119.556-.377c-.037-.529 0-1.063-.012-1.594-.006-.251.057-.343.335-.368.739-.068 1.365.014 1.707.8a4.8 4.8 0 0 0 .52.756c.633.911.682.931 1.879.706zm-.513-.965a10.179 10.179 0 0 1-1.957.072c-.289.005-.255-.2-.255-.381 0-.449.031-.9-.009-1.347s.146-.577.557-.524a4.307 4.307 0 0 0 .551 0v-.025c.345.029.694.037 1.035.091a.969.969 0 0 1 .945 1.007 1.065 1.065 0 0 1-.867 1.107z" class="cls-1" transform="translate(-901.335 -422.402)"/>
    <path id="Caminho_2121" d="M1443.3 432.437c-.548-.74-1.092-1.483-1.65-2.215-.188-.246-.325-.367.124-.524a1.833 1.833 0 0 0 1.374-2.111 2.043 2.043 0 0 0-2.056-1.673c-.922-.026-1.845 0-2.767-.022-.358-.01-.445.111-.443.452.012 1.924 0 3.849-.005 5.773 0 .275.007.455.377.453.353 0 .411-.147.391-.441s0-.573 0-.86c0-1.316 0-1.3 1.346-1.322a.929.929 0 0 1 .906.457c.357.547.81 1.033 1.153 1.588a1.008 1.008 0 0 0 1.24.531c.005-.048.018-.075.01-.086zm-4.482-3.161c-.213.012-.171-.189-.173-.322-.006-.348 0-.7 0-1.045 0-1.355 0-1.352 1.375-1.357a4.87 4.87 0 0 1 1.4.117 1.177 1.177 0 0 1 .96 1.062 1.2 1.2 0 0 1-.763 1.334 8.5 8.5 0 0 1-2.8.211z" class="cls-1" transform="translate(-1334.571 -422.686)"/>
</svg>
